<?xml version="1.0" encoding="iso-8859-1"?>
<!-- Uploaded to: SVG Repo, www.svgrepo.com, Generator: SVG Repo Mixer Tools -->
<svg fill="white" height="800px" width="800px" version="1.1" id="Layer_1" xmlns="http://www.w3.org/2000/svg" xmlns:xlink="http://www.w3.org/1999/xlink" 
	 viewBox="0 0 512.002 512.002" xml:space="preserve">
<g>
	<g>
		<path d="M479.88,199.353c-19.283-30.458-53.55-41.877-77.035-42.403c-30.106-0.672-59.277,15.173-80.422,41.161
			c3.678-22.381,6.014-44.262,6.014-64.246c0-79.942-64.671-130.058-67.423-132.153c-2.943-2.238-7.002-2.285-9.993-0.118
			c-0.696,0.504-17.258,12.611-33.862,34.869c-22.062,29.573-33.722,63.254-33.722,97.402c0,19.837,2.317,41.734,5.94,64.032
			c-21.142-25.86-50.234-41.6-80.221-40.936c-23.485,0.525-57.753,11.946-77.036,42.403c-13.369,21.117-13.853,42.645-12.95,53.598
			c2.38,28.919,18.318,43.515,21.488,46.148c7.08,5.878,13.049,5.818,15.972,5.26c7.205-1.374,13.482-7.926,14.289-14.918
			c0.054-0.467,0.075-0.861,0.084-1.122c1.199-15.123,19.375-28.956,34.296-30.793c38.04-4.69,56.087,17.249,64.527,36.475
			c1.862,4.24,6.81,6.17,11.047,4.307c4.24-1.861,6.169-6.807,4.307-11.047c-14.946-34.045-44.81-50.949-81.931-46.377
			c-11.126,1.371-22.799,6.856-32.028,15.05C61.123,264.909,55.107,276,54.271,287.23c-0.134,0.171-0.347,0.369-0.525,0.506
			c-0.433-0.171-1.233-0.579-2.375-1.528c-1.388-1.153-13.619-11.918-15.487-34.622c-0.587-7.134-0.749-25.632,10.406-43.252
			c14.726-23.26,42.375-34.142,63.242-34.608c39.906-0.857,78.234,34.031,91.195,83.105l7.207,26.389
			c3.827,14.743,7.653,28.581,11.113,40.905h-33.124c-18.288,0-33.166,14.878-33.166,33.166s14.878,33.164,33.166,33.164h33.311
			v22.96h-31.642c-4.63,0-8.384,3.754-8.384,8.384v1.903c0,24.234,17.038,44.739,40.026,49.753v1.251
			c0,20.565,16.73,37.296,37.295,37.296c20.565,0,37.296-16.73,37.296-37.296v-0.548c24.798-3.407,43.959-24.736,43.959-50.455
			v-1.903c0-4.63-3.753-8.384-8.384-8.384h-35.575v-22.96h32.13c18.288,0,33.166-14.878,33.166-33.164
			c0-18.286-14.878-33.166-33.166-33.166h-33.057c0.712-2.605,1.434-5.25,2.164-7.933l16.233-59.439
			c12.781-48.396,50.33-83.054,89.683-83.054c0.495,0,0.997,0.006,1.494,0.017c20.869,0.466,48.516,11.349,63.242,34.609
			c11.155,17.618,10.994,36.118,10.408,43.252c-1.869,22.704-14.099,33.467-15.487,34.621c-1.13,0.938-1.926,1.347-2.36,1.521
			c-0.201-0.143-0.41-0.336-0.541-0.503c-0.818-11.198-6.837-22.306-16.949-31.286c-9.228-8.194-20.902-13.68-32.028-15.05
			c-37.376-4.599-67.326,12.515-82.186,46.964c-1.834,4.251,0.125,9.186,4.378,11.019c4.252,1.834,9.186-0.126,11.019-4.378
			c8.396-19.467,26.456-41.683,64.738-36.962c14.928,1.839,33.113,15.684,34.297,30.815c0.01,0.254,0.03,0.641,0.084,1.1
			c0.807,6.991,7.083,13.545,14.286,14.919c2.925,0.559,8.895,0.619,15.975-5.26c3.17-2.632,19.107-17.228,21.488-46.148
			C493.732,241.997,493.248,220.467,479.88,199.353z M320.396,430.183c-3.037,15.749-16.924,27.68-33.546,27.68h-1.413
			c-4.631,0-8.384,3.754-8.384,8.384v8.457c0,11.319-9.208,20.528-20.528,20.528c-11.319,0-20.527-9.208-20.527-20.528v-8.537
			c0-4.44-3.462-8.11-7.896-8.37c-15.809-0.924-28.614-12.57-31.514-27.614h31.025c4.63,0,8.384-3.754,8.384-8.384v-31.345h41.055
			v31.345c0.002,4.63,3.755,8.384,8.386,8.384H320.396z M325.954,340.891c9.04,0,16.396,7.356,16.396,16.397
			s-7.356,16.396-16.397,16.396h-40.515h-57.823h-41.695c-9.042,0-16.397-7.356-16.397-16.396s7.356-16.397,16.397-16.397h44.016
			c0.049,0.001,0.096,0.012,0.145,0.012c0.059,0,0.121-0.011,0.18-0.012h51.624c0.011,0,0.022,0.002,0.032,0.002
			c0.009,0,0.018-0.002,0.027-0.002H325.954z M278.902,311.704l-3.392,12.419h-39.026l-12.335-45.165
			c-12.011-46.273-23.945-101.31-23.945-145.093c-0.001-60.922,41.08-101.963,55.625-114.581
			c14.53,13.052,55.839,55.376,55.839,114.581C311.669,187.786,293.675,257.421,278.902,311.704z"/>
	</g>
</g>
<g>
	<g>
		<circle cx="205.379" cy="357.289" r="8.384"/>
	</g>
</g>
<g>
	<g>
		<circle cx="239.083" cy="357.289" r="8.384"/>
	</g>
</g>
<g>
	<g>
		<circle cx="272.788" cy="357.289" r="8.384"/>
	</g>
</g>
<g>
	<g>
		<circle cx="306.492" cy="357.289" r="8.384"/>
	</g>
</g>
</svg>